<svg xmlns="http://www.w3.org/2000/svg" viewBox="190 0 100 95">
    <path fill="#751C4B" d="M244.1 44.6h-21.9l-11 19 11 19h21.9l11-19-11-19z"/>
    <path fill="#EE499A" d="M255.1 63.6l-11-19h-21.9l10.9 19h22z"/>
    <path fill="#DB207A" d="M222.2 44.6l-11 19 11 19 10.9-19-10.9-19z"/>
    <path d="M246.8 2L225 39.7h10.9L257.7 2h-10.9zM268.7 2h-5.5l-21.7 37.7h5.5l1.3 2.3 1.4 2.4 21.7-37.7-2.7-4.7zM274.2 11.5l-21.7 37.7 5.4 9.5L279.7 21l-5.5-9.5z"/>
    <path d="M282.4 25.8l-35.5 61.6h-27.5l-13.7-23.8 23.5-40.7h-10.9l-23.5 40.7L214 96.8h38.3l35.6-61.6-5.5-9.4z"/>
</svg>